<svg width="25" height="25" viewBox="0 0 25 25" fill="none" xmlns="http://www.w3.org/2000/svg">
<path d="M17.1875 0H7.8125C3.49844 0 0 3.49844 0 7.8125V17.1875C0 21.5016 3.49844 25 7.8125 25H17.1875C21.5016 25 25 21.5016 25 17.1875V7.8125C25 3.49844 21.5016 0 17.1875 0ZM22.6562 17.1875C22.6562 20.2031 20.2031 22.6562 17.1875 22.6562H7.8125C4.79688 22.6562 2.34375 20.2031 2.34375 17.1875V7.8125C2.34375 4.79688 4.79688 2.34375 7.8125 2.34375H17.1875C20.2031 2.34375 22.6562 4.79688 22.6562 7.8125V17.1875Z" fill="url(#paint0_linear)"/>
<path d="M6.24977 12.8687C6.2476 16.1143 9.09943 18.7478 12.619 18.7501C16.1386 18.7524 18.9939 16.1228 18.9961 12.8772C18.9982 9.6315 16.1464 6.9981 12.6268 6.99575C9.10726 6.99341 6.25193 9.62301 6.24977 12.8687ZM16.6061 12.8756C16.6048 14.9003 14.816 16.5476 12.6205 16.5462C10.4233 16.5447 8.63835 14.895 8.6397 12.8703C8.64105 10.8456 10.4282 9.19823 12.6254 9.19969C14.8209 9.20116 16.6075 10.8509 16.6061 12.8756Z" fill="url(#paint1_linear)"/>
<path d="M19.2188 6.6141C19.6787 6.6141 20.0516 6.24124 20.0516 5.7813C20.0516 5.32135 19.6787 4.94849 19.2188 4.94849C18.7588 4.94849 18.386 5.32135 18.386 5.7813C18.386 6.24124 18.7588 6.6141 19.2188 6.6141Z" fill="url(#paint2_linear)"/>
<defs>
<linearGradient id="paint0_linear" x1="2.28851" y1="22.7116" x2="22.7115" y2="2.28836" gradientUnits="userSpaceOnUse">
<stop stop-color="#FFC107"/>
<stop offset="0.507" stop-color="#F44336"/>
<stop offset="0.99" stop-color="#9C27B0"/>
</linearGradient>
<linearGradient id="paint1_linear" x1="17.1265" y1="17.0316" x2="8.84838" y2="8.04282" gradientUnits="userSpaceOnUse">
<stop stop-color="#FFC107"/>
<stop offset="0.507" stop-color="#F44336"/>
<stop offset="0.99" stop-color="#9C27B0"/>
</linearGradient>
<linearGradient id="paint2_linear" x1="18.63" y1="6.37028" x2="19.8076" y2="5.19246" gradientUnits="userSpaceOnUse">
<stop stop-color="#FFC107"/>
<stop offset="0.507" stop-color="#F44336"/>
<stop offset="0.99" stop-color="#9C27B0"/>
</linearGradient>
</defs>
</svg>
